<svg xmlns="http://www.w3.org/2000/svg" width="236" height="228" viewBox="0 0 236 228" version="1.1"><path d="M 74 109.500 L 74 152 81.985 152 L 89.969 152 90.235 123.250 L 90.500 94.500 101.423 123.250 L 112.346 152 117.979 152 L 123.613 152 134.556 123.250 L 145.500 94.500 145.765 123.250 L 146.031 152 154.015 152 L 162 152 162 109.500 L 162 67 152.074 67 L 142.148 67 138.205 77.250 C 136.037 82.888, 130.716 96.836, 126.381 108.248 C 122.047 119.659, 118.275 128.993, 118 128.990 C 117.725 128.988, 113.955 119.651, 109.623 108.243 C 105.290 96.834, 99.970 82.888, 97.799 77.250 L 93.852 67 83.926 67 L 74 67 74 109.500" stroke="none" fill="#f9f9fa" fill-rule="evenodd"/><path d="M 0 114.004 L 0 228.008 118.250 227.754 L 236.500 227.500 236.754 113.750 L 237.009 0 118.504 0 L 0 0 0 114.004 M 0.483 114.500 C 0.483 177.200, 0.603 202.997, 0.750 171.827 C 0.896 140.657, 0.896 89.357, 0.750 57.827 C 0.603 26.297, 0.483 51.800, 0.483 114.500 M 74 109.500 L 74 152 81.985 152 L 89.969 152 90.235 123.250 L 90.500 94.500 101.423 123.250 L 112.346 152 117.979 152 L 123.613 152 134.556 123.250 L 145.500 94.500 145.765 123.250 L 146.031 152 154.015 152 L 162 152 162 109.500 L 162 67 152.074 67 L 142.148 67 138.205 77.250 C 136.037 82.888, 130.716 96.836, 126.381 108.248 C 122.047 119.659, 118.275 128.993, 118 128.990 C 117.725 128.988, 113.955 119.651, 109.623 108.243 C 105.290 96.834, 99.970 82.888, 97.799 77.250 L 93.852 67 83.926 67 L 74 67 74 109.500" stroke="none" fill="#7494b4" fill-rule="evenodd"/></svg>